<svg width="25" height="24" viewBox="0 0 25 24" fill="none" xmlns="http://www.w3.org/2000/svg">
<path d="M0 0V20.5205H8.02402V21.9877H6.55742V23.4526H18.4425V21.9877H16.9759V20.5205H25V0H0ZM15.511 21.9877H9.48896V20.5205H15.511V21.9877H15.511ZM23.5351 19.0556H1.46489V16.1222H23.5351V19.0556H23.5351ZM23.5351 14.6573H1.46489V1.46494H23.5351V14.6573H23.5351Z" fill="#F2F2F2"/>
<path d="M9.95669 5.4134L8.92085 4.37756L5.2373 8.06111L8.92085 11.7446L9.95669 10.7088L7.30899 8.06111L9.95669 5.4134Z" fill="#F2F2F2"/>
<path d="M16.0778 4.37756L15.042 5.4134L17.6897 8.06111L15.042 10.7088L16.0778 11.7446L19.7613 8.06111L16.0778 4.37756Z" fill="#F2F2F2"/>
<path d="M12.6322 3.64399L10.9316 12.193L12.3685 12.4788L14.069 3.9298L12.6322 3.64399Z" fill="#F2F2F2"/>
</svg>
