<svg width="46" height="65" viewBox="0 0 46 65" fill="none" xmlns="http://www.w3.org/2000/svg">
<path d="M22.9719 65L4.18634 59.7793L0 12.7742H46.0001L41.8093 59.7722L22.9719 65Z" fill="#4353AD"/>
<path d="M38.2217 56.7796L41.8025 16.6178H23V61.004L38.2217 56.7796Z" fill="#485FB5"/>
<path d="M22.9996 49.0235L22.9744 49.03L16.561 47.2964L16.151 42.6987H10.3701L11.1768 51.7505L22.9732 55.0288L22.9996 55.0215V49.0235ZM8.55957 22.3827L9.08303 28.1476H22.9996V22.3827H8.55957ZM9.59671 34.051L10.1128 39.816H22.9996V34.051H9.59671Z" fill="#EDEDED"/>
<path d="M27.5656 6.38962e-05H34.5405V2.53905H30.4826V3.04709H34.5405V8.88672H27.5656V6.22052H31.6238V5.71288H27.5659V6.38962e-05H27.5656ZM19.1959 6.38962e-05H26.1705V2.53905H22.1127V3.04709H26.1705V8.88672H19.1961V6.22052H23.2541V5.71288H19.1957V6.38962e-05H19.1959ZM10.8262 6.38962e-05H17.8008V2.91988H13.743V5.84009H17.8011V8.75991H10.8262V6.38962e-05Z" fill="#F2F2F2"/>
<path d="M36.3667 34.0512L37.4062 22.3829H22.9807V28.1477H31.0952L30.5713 34.0512H22.9807V39.8162H30.072L29.4031 47.2932L22.9805 49.0284V55.0261L34.7861 51.7507L34.8725 50.7769L36.2262 35.5992L36.3667 34.0512Z" fill="#F2F2F2"/>
</svg>
