<svg width="46" height="65" viewBox="0 0 46 65" fill="none" xmlns="http://www.w3.org/2000/svg">
<path d="M4.16571 59.7793L0 12.774H45.7746L41.6044 59.7719L22.8592 65L4.16571 59.7793Z" fill="#E53D20"/>
<path d="M22.8877 61.0039L38.0347 56.7793L41.5984 16.6174H22.8877V61.0039Z" fill="#F15123"/>
<path d="M22.887 34.0511H15.3041L14.7804 28.1476H22.887V22.3825H22.8672H8.51758L8.65479 23.9292L10.0633 39.8159H22.887V34.0511Z" fill="#EDEDED"/>
<path d="M22.8872 49.0232L22.862 49.03L16.48 47.2962L16.0718 42.6984H12.9707H10.3193L11.1222 51.7503L22.8608 55.0286L22.8872 55.0212V49.0232Z" fill="#EDEDED"/>
<path d="M4.25879 4.1008e-05H7.17102V2.89456H9.8349V4.1008e-05H12.7473V8.76538H9.83502V5.83029H7.17114V8.76538H4.259V4.1008e-05H4.25879Z" fill="#F2F2F2"/>
<path d="M16.5764 2.90678H14.0127V4.1008e-05H22.0537V2.90678H19.4888V8.76538H16.5767V2.90678H16.5764Z" fill="#F2F2F2"/>
<path d="M23.3301 4.1008e-05H26.3667L28.2346 3.0799L30.1006 4.1008e-05H33.1384V8.76538H30.2382V4.42079L28.2346 7.53739H28.1846L26.1796 4.42079V8.76538H23.3301V4.1008e-05Z" fill="#F2F2F2"/>
<path d="M34.5879 4.1008e-05H37.501V5.8681H41.5963V8.76538H34.5879V4.1008e-05Z" fill="#F2F2F2"/>
<path d="M22.8672 34.0511V39.8159H29.9236L29.2585 47.2927L22.8672 49.0282V55.0259L34.615 51.7504L34.7012 50.7765L36.0479 35.5991L36.1876 34.0511H34.6434H22.8672Z" fill="#F2F2F2"/>
<path d="M22.8672 22.3826V28.1476H36.6907H36.709L36.824 26.8517L37.0851 23.9292L37.2221 22.3826H22.8672Z" fill="#F2F2F2"/>
</svg>
