<svg width="162" height="37" viewBox="0 0 162 37" fill="none" xmlns="http://www.w3.org/2000/svg">
<path fill-rule="evenodd" clip-rule="evenodd" d="M154.373 2.70654L161.139 2.74372C161.139 2.74372 148.56 19.7888 147.533 21.178C147.199 21.6279 146.692 22.113 146.435 22.7144C145.786 24.2262 145.119 27.5424 145.119 27.5424L138.928 27.5731C138.928 27.5731 139.891 24.1166 139.852 22.2754C139.817 20.6668 138.996 19.0605 138.535 17.4473C138.07 15.8146 137.438 12.6192 137.438 12.6192H143.802L144.68 16.1306L154.373 2.70654Z" fill="white"/>
<path fill-rule="evenodd" clip-rule="evenodd" d="M141.561 6.30137C142.81 7.05421 143.576 11.2063 143.576 11.2063C143.576 11.2063 137.043 11.3026 133.487 11.3026H130.415L126.684 27.5425H120.979C120.979 27.5425 124.529 9.89393 125.368 6.69421C125.64 5.65852 127.229 5.83604 129.912 5.83604H134.198C136.966 5.83604 140.201 5.48286 141.561 6.30137Z" fill="white"/>
<path fill-rule="evenodd" clip-rule="evenodd" d="M114.999 14.2105C114.999 14.2105 115.177 13.168 114.396 11.961C113.729 10.9318 113.112 10.6926 111.356 10.6378C106.399 10.482 106.495 14.1557 106.495 14.1557L114.999 14.2105ZM120.376 10.0036C121.102 12.624 119.718 18.7818 119.718 18.7818C119.718 18.7818 112.486 18.661 108.525 18.7818C107.294 18.8193 105.819 18.6479 105.453 19.2208C104.937 20.0238 105.641 21.2596 106.238 21.7817C106.926 22.383 108.264 22.4512 108.745 22.5125C111.96 22.9208 118.688 22.6178 118.688 22.6178L117.523 27.7793C117.523 27.7793 108.014 28.2558 103.258 27.1209C102.319 26.8972 101.439 26.4452 100.844 25.8042C100.682 25.6289 100.541 25.3897 100.388 25.1834C100.265 25.0186 99.9074 24.4767 99.7469 24.0485C98.6607 21.154 99.8742 15.6084 101.064 12.637C101.202 12.2925 101.375 11.856 101.558 11.4848C101.786 11.022 101.979 10.4996 102.161 10.223C102.284 10.0321 102.435 9.90914 102.563 9.72914C102.71 9.5163 102.881 9.30997 103.039 9.12594C103.478 8.61661 103.976 8.25662 104.575 7.80925C106.557 6.32557 110.143 5.17339 114.45 5.61456C116.072 5.78124 118.522 6.36058 119.718 8.0286C120.038 8.4741 120.196 9.3583 120.376 10.0036Z" fill="white"/>
<path fill-rule="evenodd" clip-rule="evenodd" d="M94.2053 5.81604L99.7379 5.7832C99.7379 5.7832 96.6547 20.4099 95.0833 27.5424H88.7189C84.2706 27.5424 80.3094 28.0932 78.624 24.9087C76.9892 21.8168 78.5494 16.7319 79.2824 13.2775C79.8004 10.8328 80.8912 5.83587 80.8912 5.83587L86.6233 5.7832C86.6233 5.7832 85.0036 13.5628 84.3298 17.4472C84.0885 18.8386 83.5906 20.1488 84.1105 21.178C84.6043 22.157 85.2955 22.227 87.4022 22.2753C88.0695 22.2908 90.2552 22.2753 90.2552 22.2753L94.2053 5.81604Z" fill="white"/>
<path fill-rule="evenodd" clip-rule="evenodd" d="M68.3097 16.3499C68.889 14.2915 69.7339 12.0596 69.6264 10.2051C69.5102 8.22139 67.8468 6.4152 66.7736 6.03568C63.5411 4.89434 60.5149 6.48986 59.3122 7.79106C57.756 9.47674 57.2293 11.4453 56.6785 14.1555C56.2683 16.1677 55.9325 18.2921 56.6785 19.8612C57.9995 22.6353 62.1187 22.0296 66.554 22.0559C67.2123 20.2916 67.7567 18.3097 68.3097 16.3499ZM75.9908 8.23006C76.6228 12.8255 74.1979 17.8974 72.5277 22.3081C74.2307 22.4618 75.7231 22.2843 75.8306 22.4113C75.9424 22.5761 74.6893 27.6762 74.2524 27.6892C72.9007 27.7245 68.4218 27.7617 66.554 27.7617C60.4597 27.7617 54.7583 28.1589 51.8507 25.1283C50.67 23.8971 49.8537 21.7858 49.656 20.3002C49.3267 17.8202 49.7394 15.0902 50.3144 12.8388C50.8345 10.8064 51.5016 8.88841 52.5091 7.13272C55.07 2.66247 59.525 -0.655588 66.993 0.110262C68.4413 0.25959 70.5217 0.89377 71.821 1.6463C71.9109 1.69928 72.225 1.94929 72.2972 1.99328C74.0529 3.11046 75.6528 5.77668 75.9908 8.23006Z" fill="white"/>
<path fill-rule="evenodd" clip-rule="evenodd" d="M49.0265 5.8425C48.6578 7.52135 48.2891 9.42421 47.9006 11.0832H41.7559C42.232 9.24421 42.5964 7.41602 43.0725 5.81616C45.0389 5.81616 46.8671 5.8425 49.0265 5.8425Z" fill="white"/>
<path fill-rule="evenodd" clip-rule="evenodd" d="M41.535 12.6194H47.4601C46.6856 16.9078 45.1517 23.8249 43.949 28.6396C43.1962 31.6528 42.6937 33.8519 40.657 35.4428C40.4748 35.5856 40.3698 35.5177 40.2183 35.6624C39.8428 36.0202 38.1069 36.4351 37.1459 36.5401C35.5832 36.7093 33.8167 36.5621 31.8965 36.5227C32.399 34.6859 32.9675 32.4804 33.4152 30.8343C38.0961 31.4007 38.2147 26.9763 39.1209 22.7145C39.6454 20.2522 41.2345 13.6071 41.535 12.6194Z" fill="white"/>
<path fill-rule="evenodd" clip-rule="evenodd" d="M27.7097 23.8118L27.5827 24.1409C25.4187 28.3543 21.5848 30.9396 16.116 31.0536C13.5595 31.1063 11.1235 30.4504 9.53227 29.737C6.09803 28.1941 3.20967 25.3327 1.63212 22.2755C-0.630726 17.8929 -1.03875 11.7965 3.66633 7.24292C3.73883 7.24292 3.09566 8.23028 3.16816 8.23028L3.03866 8.65162C-0.351897 19.2666 10.094 28.3633 20.2483 27.3229C22.6886 27.0729 25.8007 25.7364 27.7097 23.8118Z" fill="#21609B"/>
<path fill-rule="evenodd" clip-rule="evenodd" d="M21.565 19.4226C24.1196 19.4402 26.788 18.2462 28.3681 16.5698C26.9857 20.079 22.983 22.3348 17.6149 21.6173C13.1205 21.0159 8.8389 16.493 8.39774 11.9611C8.07522 8.66287 9.22493 6.69434 11.1191 4.30664C10.4608 5.55548 10.2148 6.51868 10.1534 7.13303C9.43374 14.2676 15.8527 19.3854 21.565 19.4226Z" fill="#21609B"/>
<path fill-rule="evenodd" clip-rule="evenodd" d="M28.1113 10.5607C27.7141 11.4716 25.4274 13.1919 24.4178 13.407C20.4194 14.2586 17.8585 12.3626 16.5173 10.2051C16.3178 9.88256 15.9491 9.0027 15.8831 8.77871C15.363 7.01001 15.6021 4.3348 17.154 2.94995C16.6865 4.26664 16.6183 5.79617 16.8643 6.79035C17.0133 7.39169 17.4675 8.44102 17.922 9.10122C18.7492 10.3039 19.2737 10.5961 20.336 11.2346C20.8144 11.5221 21.3277 11.7526 21.5496 11.8161C22.5567 12.1123 24.6833 12.8936 28.1113 10.5607Z" fill="#21609B"/>
</svg>
