<svg width="40" height="30" viewBox="0 0 40 30" fill="none" xmlns="http://www.w3.org/2000/svg">
<path d="M39.0884 2.03437C39.3631 0.8625 39.0884 0 37.7666 0L33.3929 0C32.2791 0 31.7667 0.740625 31.492 1.56562C31.492 1.56562 29.2643 8.41875 26.1158 12.8625C25.0985 14.1469 24.6307 14.5594 24.0738 14.5594C23.7991 14.5594 23.3758 14.1469 23.3758 12.975V2.03437C23.3758 0.628125 23.0639 0 22.1431 0L15.267 0C14.569 0 14.1532 0.65625 14.1532 1.26562C14.1532 2.59687 15.7274 2.90625 15.8908 6.65625V14.7938C15.8908 16.575 15.6383 16.9031 15.0814 16.9031C13.5963 16.9031 9.98744 10.0219 7.84886 2.14688C7.41818 0.61875 6.99492 0 5.87365 0L1.49997 0C0.25247 0 2.83264e-08 0.740625 2.83264e-08 1.56562C2.83264e-08 3.02812 1.48512 10.2938 6.91324 19.8938C10.5295 26.4469 15.6235 30 20.257 30C23.0416 30 23.3832 29.2125 23.3832 27.8531C23.3832 21.5906 23.1308 21 24.5268 21C25.1728 21 26.2866 21.4125 28.8856 24.5719C31.8558 28.3219 32.3459 30 34.0093 30H38.3829C39.6304 30 40.2616 29.2125 39.8978 27.6562C39.0661 24.3844 33.4449 17.6531 33.1924 17.2031C32.5464 16.1531 32.7321 15.6844 33.1924 14.7469C33.1999 14.7375 38.5389 5.25 39.0884 2.03437Z" fill="#F2F2F2"/>
</svg>
